# xmcd
#
# Track frame offsets: 
#        150
#        15360
#        29305
#        31715
#        47388
#        64460
#        79813
#        96415
#        101533
#        115763
#        119160
#        131855
#        145220
#
# Disc length: 2193 seconds
#
# Revision: 1
# Processed by: cddbd v1.5.2PL0 Copyright (c) Steve Scherf et al.
# Submitted via: ExactAudioCopyFreeDBPlugin 1.0
#
DISCID=ae088f0d
DTITLE=Ruben and the Jets - Con Safos
DYEAR=1973
DGENRE=Rhythm and Blues
TTITLE0=Cruisin' Down Broadway
TTITLE1=To Be Loved
TTITLE2=Stronger (Preview)
TTITLE3=Speedoo
TTITLE4=Honky Tonk
TTITLE5=Low Ridin' Cruiser
TTITLE6=Stronger
TTITLE7=Earth to Buffalo
TTITLE8=I Wanna Know
TTITLE9=Honky Tonk (Replay)
TTITLE10=Dust My Blues
TTITLE11=A Thousand Miles Away - You Send Me
TTITLE12=Durango
EXTD=ARD Edsel Records EDCD 405 1973 In-Discreet Inc.
EXTT0=
EXTT1=
EXTT2=
EXTT3=
EXTT4=
EXTT5=
EXTT6=
EXTT7=
EXTT8=
EXTT9=
EXTT10=
EXTT11=
EXTT12=
PLAYORDER=
